<svg width="23" height="23" viewBox="0 0 23 23" fill="none" xmlns="http://www.w3.org/2000/svg">
<path d="M21.4278 2.38705H16.9384V1.23767C16.9384 0.55365 16.3839 0 15.7007 0C15.0184 0 14.4631 0.55365 14.4631 1.23767V2.38705H8.5371V1.23767C8.5371 0.55365 7.98262 0 7.29943 0C6.61624 0 6.06176 0.55365 6.06176 1.23767V2.38705H1.57068C0.887483 2.38705 0.333008 2.9407 0.333008 3.62472V21.7623C0.333008 22.4472 0.887483 23 1.57068 23H21.4278C22.111 23 22.6655 22.4472 22.6655 21.7623V3.62472C22.6655 2.9407 22.1102 2.38705 21.4278 2.38705ZM2.80752 20.5255V7.93675H20.1902V20.5247L2.80752 20.5255Z" fill="#1F3965"/>
</svg>
